<?xml version="1.0" standalone="no"?>
<!DOCTYPE svg PUBLIC "-//W3C//DTD SVG 20010904//EN"
 "http://www.w3.org/TR/2001/REC-SVG-20010904/DTD/svg10.dtd">
<svg version="1.0" xmlns="http://www.w3.org/2000/svg"
 width="500.000000pt" height="500.000000pt" viewBox="0 0 500.000000 500.000000"
 preserveAspectRatio="xMidYMid meet">
<metadata>
Created by potrace 1.11, written by Peter Selinger 2001-2013
</metadata>
<g transform="translate(0.000000,500.000000) scale(0.100000,-0.100000)"
fill="#000000" stroke="none">
<path d="M3779 3921 c-234 -43 -445 -160 -589 -326 -45 -52 -46 -45 15 -114
17 -18 29 -38 27 -43 -1 -5 2 -7 6 -4 12 7 44 -28 35 -38 -5 -4 -3 -6 2 -4 12
4 55 -37 55 -52 0 -5 7 -10 15 -10 8 0 15 -4 15 -9 0 -4 27 -34 60 -66 32 -32
56 -63 53 -68 -3 -6 -1 -7 4 -4 13 8 45 -27 36 -38 -5 -5 -1 -4 8 3 8 6 25 10
36 7 13 -2 24 3 27 11 5 12 2 12 -17 3 -14 -8 -8 3 18 29 36 38 41 40 56 26
13 -12 19 -12 25 -3 4 7 3 10 -4 5 -14 -9 -24 8 -16 29 6 14 8 14 27 -2 11
-10 17 -13 14 -6 -4 6 -3 14 3 18 5 3 10 11 10 18 0 6 -7 2 -15 -9 -8 -10 -15
-14 -15 -8 0 6 7 17 15 24 8 7 15 9 15 4 0 -5 5 -1 11 9 5 9 17 17 24 17 8 0
15 4 15 10 0 5 7 6 17 3 12 -5 14 -3 8 7 -6 10 -4 12 8 7 9 -3 17 -1 19 5 3 7
36 13 83 14 52 2 74 -1 64 -7 -10 -6 -3 -8 22 -5 52 6 78 -18 85 -80 12 -97
-45 -163 -290 -333 -293 -205 -427 -334 -568 -550 l-68 -105 0 -212 c0 -206 4
-249 20 -239 4 3 15 -7 25 -21 9 -14 22 -23 30 -21 7 3 24 -1 39 -8 18 -10 28
-10 32 -3 4 7 2 8 -4 4 -7 -4 -12 -2 -12 3 0 14 6 14 31 1 12 -7 19 -7 19 -1
0 9 44 6 61 -5 4 -2 10 2 12 8 3 8 6 6 6 -5 1 -10 6 -15 11 -12 6 4 8 10 5 15
-3 4 11 4 30 0 24 -5 35 -4 36 4 0 6 4 2 9 -9 l9 -20 1 20 c1 19 1 19 14 3 16
-22 27 -23 20 -3 -5 11 -2 13 10 9 9 -3 13 -11 10 -18 -3 -6 2 -2 10 8 9 11
16 14 16 8 0 -7 5 -12 11 -12 5 0 7 5 3 11 -5 8 -1 8 14 0 27 -14 35 -14 26 2
-4 6 3 3 15 -7 14 -13 20 -15 16 -5 -4 10 3 14 28 13 19 -1 39 -4 45 -8 5 -3
13 0 15 6 3 8 6 6 6 -4 1 -10 5 -18 11 -18 5 0 7 7 4 15 -5 11 -2 13 10 9 9
-3 13 -10 10 -15 -3 -5 2 -6 10 -3 9 3 13 11 9 18 -4 6 1 5 10 -3 13 -10 17
-10 17 -1 0 10 3 10 14 1 11 -9 15 -9 19 1 4 9 6 8 6 -3 1 -9 8 -16 16 -16 11
0 12 4 4 13 -8 9 -2 10 26 4 21 -5 35 -4 35 2 0 5 5 6 10 3 6 -4 8 -12 4 -18
-3 -7 2 -3 10 7 14 17 16 18 16 3 0 -9 4 -17 10 -17 5 0 7 7 4 15 -5 11 -2 13
10 9 9 -3 13 -11 10 -18 -3 -6 2 -2 10 8 9 11 16 14 16 8 0 -7 5 -12 11 -12 5
0 7 6 4 13 -4 6 1 3 9 -7 13 -16 16 -17 16 -4 0 10 7 15 18 13 9 -2 23 -4 30
-4 7 -1 10 -7 7 -13 -4 -7 0 -5 8 5 12 14 16 15 20 4 3 -8 0 -21 -6 -28 -10
-11 -9 -11 5 0 10 7 14 19 11 29 -5 14 -3 14 15 -2 12 -11 25 -16 29 -13 3 4
1 7 -5 7 -7 0 -12 4 -12 9 0 6 12 6 30 1 17 -5 30 -5 30 0 0 8 45 4 61 -6 4
-2 10 2 12 8 4 9 6 8 6 -3 1 -9 8 -16 16 -16 11 0 12 4 4 13 -8 9 -2 10 26 4
21 -5 35 -4 35 2 0 5 5 6 10 3 6 -4 8 -12 4 -18 -3 -7 2 -3 10 7 16 20 16 20
16 0 0 -14 2 -16 9 -5 5 8 28 14 59 15 28 0 48 -2 45 -6 -2 -5 1 -8 7 -8 6 0
8 -6 5 -12 -4 -7 3 -2 14 11 12 13 21 19 21 15 0 -5 31 -8 69 -6 76 4 92 18
84 75 -2 16 0 26 5 23 6 -3 16 2 23 12 12 15 12 16 -2 5 -18 -15 -30 -8 -22
13 3 8 0 14 -6 14 -6 0 -8 8 -3 23 9 25 8 67 -1 91 -3 8 -1 18 5 22 7 5 8 2 3
-6 -5 -9 -4 -11 4 -6 7 5 9 12 3 19 -5 7 -9 33 -10 59 -1 40 2 46 16 42 16 -5
16 -5 1 5 -20 13 -25 86 -5 74 8 -5 8 -3 -1 8 -6 8 -10 42 -9 82 1 37 -1 67
-5 67 -4 0 -5 9 -2 20 4 15 -2 22 -21 30 -15 5 -25 14 -22 19 11 17 -27 20
-271 21 -193 1 -248 -2 -254 -12 -5 -7 -8 -49 -8 -93 2 -141 22 -125 -152
-125 -124 0 -150 2 -146 14 3 7 1 18 -4 23 -6 6 17 31 58 66 38 31 77 66 88
77 12 11 29 20 40 20 10 0 15 3 12 7 -12 12 33 34 56 28 16 -4 18 -4 8 3 -8 6
-10 15 -6 22 6 10 11 8 22 -6 13 -18 14 -17 9 10 -3 16 -2 26 1 23 3 -4 17 3
31 13 33 26 45 25 36 -2 -8 -27 -2 -23 16 11 10 19 10 22 -2 15 -11 -6 -11 -5
1 9 12 16 37 14 27 -2 -3 -4 4 -7 14 -8 11 -1 22 2 25 7 2 4 -3 7 -13 6 -9 0
-17 5 -17 13 0 18 63 54 81 47 17 -7 28 10 13 20 -8 5 -9 3 -4 -6 6 -9 4 -11
-5 -5 -17 10 27 45 48 38 7 -3 20 4 28 16 9 12 20 18 26 15 7 -5 8 -2 3 5 -5
9 -13 7 -31 -10 -13 -12 -24 -20 -24 -16 0 12 43 46 52 41 4 -3 8 2 8 12 0 12
6 15 21 11 16 -4 18 -3 9 7 -7 10 -6 17 7 27 17 13 17 13 3 -6 -14 -18 -13
-19 1 -8 9 7 18 10 22 7 3 -3 3 3 0 15 -3 12 -1 21 6 21 6 0 10 3 10 8 -3 20
2 23 18 11 15 -13 15 -12 4 9 -7 14 -8 22 -1 22 5 0 10 -5 10 -12 0 -6 3 -8 6
-5 4 4 1 14 -7 24 -9 11 -10 14 -1 9 11 -7 14 -3 16 27 1 6 10 20 21 30 11 10
14 16 8 12 -7 -3 -13 -1 -13 4 0 6 8 11 18 11 12 0 13 3 5 8 -10 6 -9 18 1 52
7 25 11 52 9 60 -4 13 -3 13 6 0 9 -13 11 -13 11 3 0 9 -4 17 -10 17 -6 0 -6
9 0 25 6 15 6 26 0 30 -7 4 -7 13 0 24 9 17 7 47 -6 96 -4 16 -3 17 5 5 6 -8
11 -10 11 -4 0 5 -5 15 -12 22 -8 8 -8 15 2 26 10 13 9 17 -4 22 -10 4 -15 13
-12 20 3 8 1 14 -4 14 -6 0 -10 11 -10 24 0 14 -4 28 -10 31 -15 9 -12 27 3
19 6 -4 3 2 -8 13 -11 10 -29 37 -40 59 -11 21 -24 42 -30 46 -5 4 -6 8 -2 8
5 0 -10 17 -32 39 -22 21 -37 41 -34 45 4 3 2 6 -3 6 -16 0 -64 47 -56 54 4 4
2 6 -3 5 -16 -5 -65 32 -58 44 3 5 1 7 -5 3 -6 -3 -28 4 -49 16 -47 29 -89 45
-178 70 -78 22 -289 33 -366 19z m115 -1635 c-3 -8 -14 -14 -24 -13 -14 1 -16
4 -8 14 14 18 39 17 32 -1z"/>
<path d="M434 3892 c-6 -4 -15 -27 -20 -52 -4 -25 -8 -47 -9 -50 0 -3 -4 -27
-9 -53 -8 -53 -11 -66 -26 -142 -5 -27 -12 -66 -15 -85 -14 -86 -26 -158 -35
-200 -5 -25 -12 -63 -15 -85 -3 -22 -7 -47 -10 -55 -2 -8 -6 -31 -9 -50 -3
-19 -14 -82 -25 -139 l-19 -103 24 -21 c13 -11 24 -27 24 -34 0 -7 4 -12 8
-10 16 5 141 -56 135 -66 -3 -6 -1 -7 5 -4 14 10 41 -2 38 -16 -1 -7 -1 -9 1
-4 6 10 33 9 33 -1 0 -5 6 -9 13 -9 6 0 37 -12 67 -25 89 -41 97 -42 121 -14
18 21 25 23 43 14 18 -10 19 -9 9 4 -19 22 3 41 31 26 19 -10 19 -9 8 5 -20
23 16 42 40 20 15 -13 18 -12 28 9 10 20 10 21 -3 6 -8 -10 -17 -15 -20 -11
-10 10 -8 25 2 18 5 -3 12 -1 15 3 3 5 16 8 28 8 13 -1 31 2 41 6 13 7 17 4
17 -9 0 -10 4 -14 8 -8 4 6 18 11 32 13 20 2 22 1 10 -7 -8 -6 -10 -11 -4 -11
5 0 15 5 22 12 7 7 12 8 12 2 0 -6 6 -11 14 -11 24 0 81 -41 99 -72 10 -17 15
-31 10 -31 -4 0 -2 -4 6 -9 18 -12 22 -105 5 -161 -40 -136 -214 -213 -375
-166 -91 27 -227 116 -212 139 4 6 1 7 -6 2 -8 -4 -24 5 -43 24 -17 17 -36 31
-43 31 -12 0 -112 -99 -284 -279 l-60 -64 16 -28 c9 -16 32 -45 50 -65 18 -20
30 -41 26 -47 -3 -6 -2 -7 3 -4 6 3 16 1 24 -4 13 -8 13 -10 0 -20 -13 -9 -12
-10 3 -5 20 6 59 -23 50 -37 -3 -6 -1 -7 4 -4 6 4 16 1 22 -7 7 -8 23 -17 37
-20 14 -4 22 -11 19 -16 -3 -6 -1 -11 4 -11 6 -1 17 -2 24 -3 6 -1 11 -7 10
-14 -2 -6 4 -9 12 -6 8 4 15 1 15 -5 0 -6 7 -11 15 -11 8 0 15 -5 15 -11 0 -5
3 -8 7 -6 5 3 19 0 33 -5 18 -7 21 -11 11 -17 -9 -6 -10 -11 -2 -15 6 -4 11
-2 11 4 0 17 50 3 68 -18 7 -9 11 -11 7 -4 -7 14 11 17 20 2 4 -6 10 -8 15 -5
5 3 13 -3 19 -12 6 -10 11 -12 11 -5 0 6 5 12 11 12 5 0 8 -4 5 -9 -4 -5 4 -7
16 -3 11 3 19 1 16 -4 -4 -5 14 -9 38 -8 24 0 44 -3 44 -8 0 -5 8 -8 18 -6 9
1 23 -1 31 -6 10 -6 12 -5 7 2 -4 7 -3 12 3 12 5 0 13 -5 16 -10 5 -8 11 -8
19 -1 9 7 17 7 26 -2 7 -6 10 -7 7 -2 -3 7 8 10 31 10 20 -1 47 2 60 7 13 4
22 4 22 -2 0 -6 8 -10 18 -10 14 0 15 2 2 10 -12 7 -11 9 5 9 31 0 78 7 98 14
42 17 49 17 44 4 -3 -8 1 -14 9 -14 8 0 13 6 10 13 -6 15 78 48 102 39 9 -3
13 -3 10 1 -4 3 -1 13 7 20 15 16 29 19 21 5 -3 -5 2 -15 12 -22 15 -12 16
-12 5 1 -8 10 -9 21 -3 30 7 10 10 11 10 3 0 -7 4 -13 10 -13 5 0 6 7 3 17 -4
11 -3 14 5 9 7 -4 12 -2 12 4 0 6 5 8 10 5 6 -3 10 -2 10 4 0 6 10 15 21 22
16 8 20 8 14 -1 -5 -9 -1 -9 16 1 13 7 25 10 26 8 1 -2 5 0 10 5 5 5 3 6 -5 2
-7 -4 -12 -2 -12 6 0 10 -3 9 -11 -2 -9 -13 -10 -13 -6 0 2 8 8 15 13 15 5 0
20 8 34 18 13 9 20 17 15 17 -5 0 0 6 10 14 14 10 26 11 40 5 18 -9 19 -9 3 4
-21 17 -24 31 -5 24 8 -3 19 8 26 25 10 22 19 28 32 25 11 -3 22 0 26 5 3 6 1
8 -4 5 -6 -4 -14 0 -17 9 -4 12 -2 15 9 11 8 -4 17 -1 21 5 4 7 3 8 -4 4 -7
-4 -12 -2 -12 3 0 6 6 11 14 11 20 0 36 23 26 39 -14 23 -1 42 20 31 13 -7 21
-6 26 2 4 6 3 8 -3 5 -6 -4 -16 -1 -22 7 -9 11 -8 18 4 30 9 9 14 20 10 25 -3
5 -1 12 5 16 6 4 7 11 4 17 -4 7 2 8 17 3 23 -7 23 -6 5 8 -24 18 -15 49 11
41 13 -4 14 -3 5 3 -16 12 -24 53 -11 53 6 0 7 5 4 10 -4 6 -1 18 7 27 9 12 9
15 1 9 -9 -5 -13 0 -13 15 0 19 2 20 18 8 16 -13 16 -12 1 6 -16 21 -19 61 -6
82 6 9 3 11 -10 7 -17 -5 -17 -5 0 9 20 17 22 28 5 25 -9 -2 -12 8 -12 30 1
17 -2 32 -8 32 -5 0 -8 8 -7 18 1 9 0 24 -4 32 -18 50 -26 84 -20 93 3 5 2 7
-4 4 -5 -3 -17 9 -26 28 -12 25 -13 35 -4 39 7 2 4 5 -5 5 -16 1 -23 12 -19
34 1 5 -3 6 -9 2 -5 -3 -10 -2 -10 2 0 5 -13 23 -29 41 -17 17 -27 32 -23 32
3 0 -4 7 -16 16 -12 8 -20 20 -16 25 3 5 0 8 -8 7 -7 -2 -12 4 -10 12 2 8 0
12 -3 8 -6 -6 -85 49 -105 73 -13 15 -162 80 -220 96 -91 24 -360 23 -400 -2
-5 -3 -7 5 -4 17 7 32 15 81 16 95 1 7 6 9 11 6 6 -4 8 0 5 8 -4 11 6 14 48
15 29 0 51 -3 49 -6 -2 -4 2 -7 10 -7 8 0 12 4 9 9 -7 10 -1 10 31 -2 14 -5
24 -6 21 -2 -2 4 31 8 75 8 68 0 79 -2 74 -15 -3 -10 0 -9 10 3 14 18 20 15
16 -7 -1 -5 3 -6 9 -2 6 3 8 11 5 16 -8 12 -3 11 30 -1 14 -5 24 -6 21 -2 -7
11 166 9 183 -2 10 -6 12 -6 7 2 -9 15 -5 15 29 2 18 -7 24 -7 20 1 -9 13 27
8 37 -6 5 -6 8 -5 8 3 0 7 4 10 10 7 5 -3 26 2 47 11 20 10 31 20 24 22 -9 3
-9 8 1 20 7 9 8 13 2 9 -12 -7 -13 81 -1 101 5 7 3 12 -5 12 -9 0 -9 3 2 10
10 6 11 10 3 10 -13 0 -13 26 0 48 5 7 3 12 -5 12 -9 0 -9 3 2 10 10 6 11 10
3 10 -13 0 -13 26 0 48 5 7 3 12 -4 12 -8 0 -7 5 2 17 10 11 10 14 2 9 -7 -4
-13 -3 -13 3 0 5 6 12 13 14 10 4 10 6 0 6 -7 1 -13 6 -13 12 0 5 5 7 10 4 6
-3 10 -1 10 4 0 6 -5 11 -11 11 -6 0 -9 12 -7 28 2 20 -3 29 -19 37 -12 5 -24
17 -26 27 -5 17 -36 18 -584 18 -318 0 -583 -4 -589 -8z m1301 -1743 c-10 -15
-25 -10 -19 6 4 8 10 12 15 9 5 -3 7 -10 4 -15z"/>
<path d="M2129 3801 c-52 -54 -129 -120 -170 -148 -86 -58 -256 -146 -262
-135 -2 4 -2 1 0 -7 2 -7 -2 -21 -9 -30 -12 -14 -11 -14 5 -2 11 9 17 10 17 2
0 -28 134 -331 146 -331 8 0 14 -4 14 -9 0 -5 7 -17 16 -25 14 -15 17 -15 31
0 9 8 22 13 29 10 8 -3 14 -1 14 5 0 6 5 7 11 4 6 -4 8 -13 5 -21 -7 -19 -4
-18 18 8 15 18 16 20 2 15 -9 -4 -16 -2 -16 3 0 9 8 12 26 9 4 0 11 5 16 13 7
9 8 7 5 -10 -3 -12 -1 -20 4 -16 5 3 9 12 9 19 0 8 10 19 21 26 15 8 19 8 15
0 -4 -6 -2 -11 3 -11 6 0 11 6 11 14 0 8 7 17 16 20 14 6 15 4 4 -9 -11 -13
-11 -15 -1 -13 10 2 13 -86 13 -432 0 -239 -1 -445 -1 -457 -1 -23 -3 -23
-135 -23 -95 0 -136 -4 -144 -12 -7 -10 -11 -372 -3 -410 0 -4 10 -10 21 -13
11 -4 18 -10 15 -15 -13 -20 27 -29 127 -27 58 1 104 -1 101 -5 -2 -5 1 -8 7
-8 6 0 8 -6 5 -12 -4 -7 3 -2 14 11 12 13 21 19 21 14 0 -5 27 -6 59 -3 33 3
57 2 55 -2 -3 -4 0 -8 6 -8 6 0 8 -6 5 -12 -4 -7 3 -2 14 11 12 13 21 19 21
14 0 -5 27 -6 59 -3 33 3 57 2 55 -2 -3 -4 0 -8 6 -8 6 0 8 -6 5 -12 -4 -7 3
-2 14 11 12 13 21 19 21 14 0 -5 27 -6 59 -3 33 3 57 2 55 -2 -3 -4 0 -8 6 -8
6 0 8 -6 5 -12 -4 -7 3 -2 14 11 12 13 21 19 21 14 0 -5 27 -6 59 -3 33 3 57
2 55 -2 -3 -4 0 -8 6 -8 6 0 8 -6 5 -12 -4 -7 3 -2 14 11 12 13 21 19 21 14 0
-5 21 -7 50 -3 46 6 67 -1 38 -14 -7 -2 -4 -3 7 -2 11 2 28 6 37 10 9 4 44 6
77 4 32 -1 57 0 55 4 -2 4 4 9 15 13 19 6 23 35 6 47 -7 5 -6 8 0 8 6 0 11 12
10 28 0 15 6 33 15 40 13 10 13 11 -2 6 -13 -4 -18 -1 -18 11 0 9 5 13 11 9 8
-4 8 -1 1 12 -5 11 -7 25 -4 33 3 9 0 11 -8 6 -10 -6 -11 -4 -4 6 14 22 15 80
1 72 -9 -5 -9 -3 -1 8 10 13 10 57 0 104 -3 11 -5 23 -5 28 -1 4 -7 7 -14 7
-7 0 -18 9 -25 20 -11 17 -23 20 -96 20 -58 0 -86 4 -89 13 -4 9 -6 9 -6 0 -1
-7 -8 -13 -17 -13 -14 0 -15 2 -3 17 12 15 12 16 -1 8 -13 -8 -13 -7 0 10 8
10 10 16 5 13 -7 -4 -11 9 -12 33 -1 24 3 39 10 39 8 0 9 3 1 8 -13 8 -12 71
0 91 6 10 5 12 -2 7 -7 -4 -12 -1 -12 8 0 10 7 13 21 11 12 -3 18 -1 15 3 -4
4 -13 7 -19 7 -5 0 -12 6 -15 14 -3 9 0 11 9 5 11 -6 12 -5 2 7 -12 16 -12
117 2 138 5 10 4 12 -3 7 -8 -5 -12 2 -12 18 0 14 6 26 13 26 7 0 8 3 2 8 -16
11 -18 64 -3 73 10 7 10 9 1 9 -7 0 -13 5 -13 11 0 5 6 7 13 3 10 -6 10 -4 0
7 -7 7 -13 18 -13 24 0 5 5 3 10 -5 8 -13 10 -12 10 3 0 9 -4 17 -9 17 -11 0
-8 100 3 119 6 10 5 12 -2 7 -8 -5 -12 2 -12 18 0 14 6 26 13 26 8 0 8 3 2 8
-13 9 -13 42 -1 61 6 10 5 12 -2 7 -7 -4 -12 -1 -12 8 0 10 7 13 21 11 12 -3
18 -1 15 3 -4 4 -13 7 -18 7 -6 0 -13 6 -16 14 -3 9 0 11 9 5 11 -6 12 -5 2 7
-12 16 -12 117 2 138 5 10 4 12 -3 7 -8 -5 -12 2 -12 18 0 14 6 26 13 26 7 0
8 3 2 8 -16 11 -18 64 -3 73 10 7 10 9 1 9 -7 0 -13 5 -13 11 0 5 6 7 13 3 10
-6 10 -4 0 7 -7 7 -13 18 -13 24 0 5 5 3 10 -5 8 -13 10 -12 10 3 0 9 -4 17
-9 17 -11 0 -8 100 3 119 6 10 5 12 -2 7 -8 -5 -12 1 -12 18 0 13 6 27 13 29
10 4 10 6 0 6 -7 1 -13 8 -13 17 0 8 5 12 10 9 6 -3 10 -1 10 4 0 6 -4 11 -10
11 -5 0 -10 7 -10 16 0 9 5 12 13 8 10 -6 10 -4 0 7 -7 7 -13 26 -13 42 0 20
-6 30 -19 34 -11 3 -21 13 -24 24 -5 18 -18 19 -274 19 l-268 0 -96 -99z"/>
<path d="M2820 3679 c0 -5 5 -7 10 -4 6 3 10 8 10 11 0 2 -4 4 -10 4 -5 0 -10
-5 -10 -11z"/>
<path d="M4633 3535 c0 -8 4 -12 9 -9 5 3 6 10 3 15 -9 13 -12 11 -12 -6z"/>
<path d="M2820 3439 c0 -5 5 -7 10 -4 6 3 10 8 10 11 0 2 -4 4 -10 4 -5 0 -10
-5 -10 -11z"/>
<path d="M1656 3382 c-3 -5 1 -9 9 -9 8 0 12 4 9 9 -3 4 -7 8 -9 8 -2 0 -6 -4
-9 -8z"/>
<path d="M892 3350 c-18 -29 -15 -38 4 -12 9 13 14 25 12 27 -2 2 -9 -5 -16
-15z"/>
<path d="M1113 3354 c0 -9 4 -11 12 -4 7 5 14 9 16 7 2 -1 3 0 1 2 -7 11 -29
7 -29 -5z"/>
<path d="M1165 3360 c3 -5 8 -10 11 -10 2 0 4 5 4 10 0 6 -5 10 -11 10 -5 0
-7 -4 -4 -10z"/>
<path d="M1353 3354 c0 -9 4 -11 12 -4 7 5 14 9 16 7 2 -1 3 0 1 2 -7 11 -29
7 -29 -5z"/>
<path d="M1405 3360 c3 -5 8 -10 11 -10 2 0 4 5 4 10 0 6 -5 10 -11 10 -5 0
-7 -4 -4 -10z"/>
<path d="M2820 3359 c0 -5 5 -7 10 -4 6 3 10 8 10 11 0 2 -4 4 -10 4 -5 0 -10
-5 -10 -11z"/>
<path d="M3820 3350 c-8 -5 -10 -10 -5 -10 6 0 17 5 25 10 8 5 11 10 5 10 -5
0 -17 -5 -25 -10z"/>
<path d="M3913 3345 c0 -8 4 -15 9 -15 4 0 8 4 8 9 0 6 -4 12 -8 15 -5 3 -9
-1 -9 -9z"/>
<path d="M915 3341 c-3 -5 -2 -12 3 -15 5 -3 9 1 9 9 0 17 -3 19 -12 6z"/>
<path d="M1506 3338 c3 -5 10 -6 15 -3 13 9 11 12 -6 12 -8 0 -12 -4 -9 -9z"/>
<path d="M3790 3319 c0 -5 5 -7 10 -4 6 3 10 8 10 11 0 2 -4 4 -10 4 -5 0 -10
-5 -10 -11z"/>
<path d="M3736 3307 c-16 -12 -16 -14 -3 -14 9 0 18 6 21 14 3 7 4 13 3 13 -2
0 -11 -6 -21 -13z"/>
<path d="M870 3306 c0 -2 7 -7 16 -10 8 -3 12 -2 9 4 -6 10 -25 14 -25 6z"/>
<path d="M4695 3280 c3 -5 8 -10 11 -10 2 0 4 5 4 10 0 6 -5 10 -11 10 -5 0
-7 -4 -4 -10z"/>
<path d="M2827 3213 c3 -7 6 -13 8 -13 2 0 5 6 8 13 3 8 -1 14 -8 14 -7 0 -11
-6 -8 -14z"/>
<path d="M3612 3218 c-7 -7 -12 -16 -12 -21 0 -5 7 -1 16 8 9 9 14 18 12 20
-2 3 -10 -1 -16 -7z"/>
<path d="M2830 3100 c0 -5 5 -10 11 -10 5 0 7 5 4 10 -3 6 -8 10 -11 10 -2 0
-4 -4 -4 -10z"/>
<path d="M4679 3053 c-12 -16 -12 -17 2 -6 9 7 20 9 24 5 5 -4 5 -1 1 6 -9 16
-11 15 -27 -5z"/>
<path d="M2820 3039 c0 -5 5 -7 10 -4 6 3 10 8 10 11 0 2 -4 4 -10 4 -5 0 -10
-5 -10 -11z"/>
<path d="M4580 2840 c-9 -6 -10 -10 -3 -10 6 0 15 5 18 10 8 12 4 12 -15 0z"/>
<path d="M2820 2799 c0 -5 5 -7 10 -4 6 3 10 8 10 11 0 2 -4 4 -10 4 -5 0 -10
-5 -10 -11z"/>
<path d="M4556 2778 c3 -5 10 -6 15 -3 13 9 11 12 -6 12 -8 0 -12 -4 -9 -9z"/>
<path d="M810 2740 c-9 -6 -10 -10 -3 -10 6 0 15 5 18 10 8 12 4 12 -15 0z"/>
<path d="M1030 2736 c7 -7 13 -7 20 0 6 6 3 10 -10 10 -13 0 -16 -4 -10 -10z"/>
<path d="M2820 2719 c0 -5 5 -7 10 -4 6 3 10 8 10 11 0 2 -4 4 -10 4 -5 0 -10
-5 -10 -11z"/>
<path d="M4415 2700 c-3 -5 -1 -10 4 -10 6 0 11 5 11 10 0 6 -2 10 -4 10 -3 0
-8 -4 -11 -10z"/>
<path d="M746 2658 c3 -5 10 -6 15 -3 13 9 11 12 -6 12 -8 0 -12 -4 -9 -9z"/>
<path d="M1815 2641 c-3 -5 -2 -12 3 -15 5 -3 9 1 9 9 0 17 -3 19 -12 6z"/>
<path d="M4316 2632 c-2 -4 4 -8 14 -8 10 0 16 4 14 8 -3 4 -9 8 -14 8 -5 0
-11 -4 -14 -8z"/>
<path d="M2827 2573 c3 -7 6 -13 8 -13 2 0 5 6 8 13 3 8 -1 14 -8 14 -7 0 -11
-6 -8 -14z"/>
<path d="M4212 2558 c-7 -7 -12 -17 -12 -22 0 -6 5 -3 11 7 6 9 15 14 21 11 7
-4 8 -2 4 4 -9 15 -9 15 -24 0z"/>
<path d="M4136 2473 c-6 -14 -5 -15 5 -6 7 7 10 15 7 18 -3 3 -9 -2 -12 -12z"/>
<path d="M2830 2460 c0 -5 5 -10 11 -10 5 0 7 5 4 10 -3 6 -8 10 -11 10 -2 0
-4 -4 -4 -10z"/>
<path d="M4060 2450 c-8 -5 -10 -10 -5 -10 6 0 17 5 25 10 8 5 11 10 5 10 -5
0 -17 -5 -25 -10z"/>
<path d="M2826 2423 c-6 -14 -5 -15 5 -6 7 7 10 15 7 18 -3 3 -9 -2 -12 -12z"/>
<path d="M4000 2399 l-25 -21 27 16 c15 9 35 13 45 10 15 -5 16 -4 3 5 -20 14
-21 14 -50 -10z"/>
<path d="M2826 2363 c-6 -14 -5 -15 5 -6 7 7 10 15 7 18 -3 3 -9 -2 -12 -12z"/>
<path d="M3970 2360 c0 -4 7 -7 15 -6 23 3 26 12 5 13 -11 1 -20 -2 -20 -7z"/>
<path d="M3940 2346 c0 -2 7 -7 16 -10 8 -3 12 -2 9 4 -6 10 -25 14 -25 6z"/>
<path d="M3917 2334 c-4 -4 -7 -11 -7 -15 0 -9 27 -5 37 6 4 4 3 5 -4 2 -6 -4
-13 -2 -15 4 -2 5 -7 7 -11 3z"/>
<path d="M1806 2278 c3 -5 10 -6 15 -3 13 9 11 12 -6 12 -8 0 -12 -4 -9 -9z"/>
<path d="M4815 2260 c-3 -5 -1 -10 4 -10 6 0 11 5 11 10 0 6 -2 10 -4 10 -3 0
-8 -4 -11 -10z"/>
<path d="M1765 2230 c-3 -6 1 -7 9 -4 18 7 21 14 7 14 -6 0 -13 -4 -16 -10z"/>
<path d="M4795 2200 c3 -5 8 -10 11 -10 2 0 4 5 4 10 0 6 -5 10 -11 10 -5 0
-7 -4 -4 -10z"/>
<path d="M1770 2160 c0 -5 5 -10 11 -10 5 0 7 5 4 10 -3 6 -8 10 -11 10 -2 0
-4 -4 -4 -10z"/>
<path d="M1663 2058 c-6 -7 -10 -21 -10 -30 0 -23 12 -12 12 10 0 9 6 16 13
14 8 -1 11 2 7 8 -8 13 -10 13 -22 -2z"/>
<path d="M1598 1983 c7 -3 16 -2 19 1 4 3 -2 6 -13 5 -11 0 -14 -3 -6 -6z"/>
<path d="M1590 1960 c0 -5 5 -10 11 -10 5 0 7 5 4 10 -3 6 -8 10 -11 10 -2 0
-4 -4 -4 -10z"/>
<path d="M4790 1951 c0 -6 4 -12 8 -15 5 -3 9 1 9 9 0 8 -4 15 -9 15 -4 0 -8
-4 -8 -9z"/>
<path d="M1450 1859 c0 -5 5 -7 10 -4 6 3 10 8 10 11 0 2 -4 4 -10 4 -5 0 -10
-5 -10 -11z"/>
<path d="M4815 1841 c-3 -5 -2 -12 3 -15 5 -3 9 1 9 9 0 17 -3 19 -12 6z"/>
<path d="M1301 1807 c-8 -10 -7 -14 2 -14 8 0 14 6 14 14 0 7 -1 13 -2 13 -2
0 -8 -6 -14 -13z"/>
<path d="M580 1806 c0 -2 8 -10 18 -17 15 -13 16 -12 3 4 -13 16 -21 21 -21
13z"/>
<path d="M3330 1780 c0 -5 5 -10 11 -10 5 0 7 5 4 10 -3 6 -8 10 -11 10 -2 0
-4 -4 -4 -10z"/>
<path d="M4490 1780 c0 -5 5 -10 11 -10 5 0 7 5 4 10 -3 6 -8 10 -11 10 -2 0
-4 -4 -4 -10z"/>
<path d="M2073 1765 c0 -8 4 -12 9 -9 5 3 6 10 3 15 -9 13 -12 11 -12 -6z"/>
<path d="M2233 1765 c0 -8 4 -12 9 -9 5 3 6 10 3 15 -9 13 -12 11 -12 -6z"/>
<path d="M2393 1765 c0 -8 4 -12 9 -9 5 3 6 10 3 15 -9 13 -12 11 -12 -6z"/>
<path d="M2553 1765 c0 -8 4 -12 9 -9 5 3 6 10 3 15 -9 13 -12 11 -12 -6z"/>
<path d="M2713 1765 c0 -8 4 -12 9 -9 5 3 6 10 3 15 -9 13 -12 11 -12 -6z"/>
<path d="M2994 1760 c0 -13 4 -16 10 -10 7 7 7 13 0 20 -6 6 -10 3 -10 -10z"/>
<path d="M3428 1773 c7 -3 16 -2 19 1 4 3 -2 6 -13 5 -11 0 -14 -3 -6 -6z"/>
<path d="M4310 1776 c0 -2 8 -10 18 -17 15 -13 16 -12 3 4 -13 16 -21 21 -21
13z"/>
<path d="M4673 1765 c0 -8 4 -12 9 -9 5 3 6 10 3 15 -9 13 -12 11 -12 -6z"/>
<path d="M1133 1755 c0 -8 4 -12 9 -9 5 3 6 10 3 15 -9 13 -12 11 -12 -6z"/>
<path d="M1188 1763 c7 -3 16 -2 19 1 4 3 -2 6 -13 5 -11 0 -14 -3 -6 -6z"/>
<path d="M3560 1760 c-9 -6 -10 -10 -3 -10 6 0 15 5 18 10 8 12 4 12 -15 0z"/>
<path d="M3715 1760 c3 -5 8 -10 11 -10 2 0 4 5 4 10 0 6 -5 10 -11 10 -5 0
-7 -4 -4 -10z"/>
<path d="M4035 1760 c-3 -6 1 -7 9 -4 18 7 21 14 7 14 -6 0 -13 -4 -16 -10z"/>
<path d="M1033 1743 c4 -3 1 -13 -6 -22 -11 -14 -10 -14 6 -2 20 15 22 31 5
31 -6 0 -8 -3 -5 -7z"/>
<path d="M910 1722 c0 -5 7 -9 15 -9 8 0 12 4 9 9 -3 4 -9 8 -15 8 -5 0 -9 -4
-9 -8z"/>
<path d="M3153 1611 c6 -56 12 -94 23 -161 6 -34 8 -44 17 -120 9 -71 27 -119
47 -125 12 -4 17 -11 13 -18 -4 -7 0 -7 10 1 9 8 21 11 27 7 6 -4 10 -3 9 2
-3 19 2 34 10 29 5 -4 7 3 4 14 -3 11 0 26 6 34 8 10 9 16 1 21 -6 4 -7 13 -1
23 4 9 7 25 6 35 -2 9 0 17 3 17 4 0 7 19 7 42 0 31 4 44 16 46 13 2 16 -7 16
-52 0 -37 -4 -53 -11 -49 -6 4 -5 -1 3 -10 11 -14 11 -20 0 -34 -10 -11 -10
-14 -1 -9 8 5 12 0 12 -13 0 -32 1 -34 34 -67 25 -25 37 -30 66 -27 20 2 44
14 57 27 19 21 21 33 20 115 -1 50 1 91 6 91 8 0 8 -2 11 -95 1 -38 -2 -82 -5
-96 -6 -22 -4 -26 9 -24 10 1 25 -7 35 -18 9 -11 17 -15 17 -9 0 7 7 12 16 12
8 0 12 5 9 10 -3 6 0 10 7 10 9 0 9 3 -2 10 -13 9 -13 10 0 10 13 0 13 1 0 10
-10 6 -11 10 -3 10 9 0 10 7 3 25 -5 14 -6 25 -2 25 4 0 7 23 7 50 0 28 -4 50
-8 50 -5 0 -5 5 -1 12 10 16 11 68 1 68 -5 0 -5 6 -1 12 11 18 11 62 -1 70 -7
5 -6 8 0 8 7 0 9 15 7 35 -2 19 -8 32 -13 29 -5 -3 -9 2 -9 11 0 12 -8 15 -32
12 l-32 -3 -1 -65 c0 -35 -4 -68 -10 -72 -7 -6 -6 -10 2 -13 8 -4 9 -13 3 -28
-6 -16 -5 -28 3 -36 9 -10 9 -11 -3 -8 -8 3 -16 16 -18 29 -1 13 -3 29 -4 36
-1 7 -5 10 -9 7 -4 -2 -11 2 -16 9 -4 8 -23 21 -40 29 -31 15 -34 15 -65 -6
-21 -14 -34 -31 -36 -49 -2 -15 -10 -27 -18 -27 -17 0 -18 12 -1 29 10 11 9
12 -3 6 -12 -7 -13 -6 -3 7 7 8 10 18 6 22 -4 4 -1 11 7 16 13 8 13 10 1 10
-11 0 -10 4 5 16 10 8 13 13 6 9 -9 -5 -11 0 -8 19 3 15 -1 32 -9 40 -8 7 -12
16 -10 18 3 3 -10 5 -29 5 -31 0 -35 -3 -42 -36 -4 -20 -6 -46 -5 -58 1 -13
-2 -23 -7 -23 -6 0 -8 -10 -5 -22 4 -21 3 -21 -7 -5 -9 14 -9 22 0 33 8 8 8
14 2 14 -5 0 -13 7 -16 16 -4 10 -2 13 7 8 8 -5 8 -2 -2 9 -7 9 -10 24 -7 33
4 12 2 15 -9 10 -9 -3 -15 0 -15 9 0 9 -11 13 -31 13 l-31 -1 5 -56z m312
-186 c0 -19 -3 -35 -7 -35 -4 0 -8 19 -8 42 0 49 13 44 15 -7z m5 -66 c0 -5
-4 -9 -10 -9 -5 0 -10 7 -10 16 0 8 5 12 10 9 6 -3 10 -10 10 -16z m-6 -55
c-4 -39 -11 -39 -12 1 -1 20 2 33 7 31 5 -3 7 -17 5 -32z"/>
<path d="M3673 1658 c-2 -5 -3 -33 -2 -63 1 -30 0 -57 -3 -60 -3 -3 -2 -22 2
-41 4 -19 4 -36 0 -39 -4 -2 -4 -22 0 -44 4 -25 3 -44 -3 -50 -8 -8 -7 -11 3
-11 9 0 10 -3 5 -9 -6 -6 -8 -35 -7 -65 3 -48 7 -55 30 -64 50 -19 66 -23 59
-16 -4 4 -1 14 6 22 10 13 9 14 -3 7 -12 -7 -13 -6 -3 7 7 8 10 18 6 22 -9 8
-10 86 -2 86 13 0 17 -28 6 -39 -8 -8 -8 -11 0 -11 10 0 28 -46 24 -63 -1 -5
3 -6 9 -2 5 3 10 1 10 -4 0 -6 7 -11 16 -11 8 0 12 -4 9 -10 -4 -6 1 -7 11 -3
12 4 15 3 10 -5 -5 -9 -1 -9 18 -2 14 5 26 7 26 3 0 -6 7 2 52 56 10 12 13 21
8 21 -6 0 -10 5 -10 11 0 5 6 7 13 3 8 -5 8 -2 -2 9 -9 12 -10 17 -2 17 7 0 9
5 6 10 -4 6 -11 8 -16 5 -5 -4 -9 -1 -9 6 0 8 -14 10 -47 5 -31 -4 -44 -3 -37
4 5 5 32 10 60 11 35 1 51 6 51 16 0 7 -3 13 -6 13 -8 0 -7 67 0 75 5 4 18
-63 36 -180 11 -69 10 -87 -4 -101 -9 -8 -22 -13 -29 -10 -9 3 -12 -3 -11 -22
2 -30 12 -43 46 -61 19 -11 22 -11 16 0 -6 9 -3 11 8 6 10 -4 17 -2 17 4 0 6
8 8 17 5 10 -4 14 -4 11 0 -12 11 12 45 25 37 9 -5 9 -3 0 9 -7 8 -10 17 -7
20 2 3 7 17 9 32 3 14 8 38 11 54 3 15 6 35 6 45 -1 9 4 17 10 17 6 0 6 6 -2
15 -7 8 -8 15 -3 15 5 0 9 10 10 23 0 12 3 40 7 62 19 118 18 122 -36 128 -38
4 -38 4 -39 -65 0 -10 -5 -18 -11 -18 -6 0 -8 3 -5 6 3 4 2 16 -4 27 -9 15 -8
18 3 12 7 -4 3 2 -9 14 -13 12 -35 21 -53 21 -29 0 -30 -2 -25 -32 5 -27 4
-30 -9 -18 -9 7 -13 17 -9 24 3 6 3 8 -2 4 -4 -4 -19 1 -33 12 -13 11 -28 17
-33 14 -5 -3 -9 0 -9 6 0 6 -11 5 -30 -5 -32 -17 -59 -60 -55 -87 2 -10 -2
-18 -8 -18 -10 0 -13 28 -8 83 1 5 7 5 14 2 6 -4 3 1 -7 9 -13 10 -15 16 -7
16 11 0 11 3 1 15 -10 12 -10 15 0 15 10 0 10 3 1 14 -9 11 -9 15 1 19 11 4
10 6 0 6 -7 1 -10 6 -7 11 3 6 -1 10 -9 10 -9 0 -16 4 -16 10 0 11 -49 9 -57
-2z m204 -208 c-1 -11 -4 -20 -8 -20 -4 0 -6 11 -5 24 0 13 4 22 8 20 4 -2 6
-13 5 -24z m-105 -17 c-6 -2 -10 -8 -7 -13 9 -14 13 -70 5 -70 -15 0 -19 14
-9 27 6 7 7 13 2 13 -5 0 -9 10 -7 23 3 29 2 27 17 26 9 0 9 -2 -1 -6z m105
-128 c0 -8 -6 -15 -13 -15 -8 0 -11 6 -8 15 4 8 9 15 13 15 4 0 8 -7 8 -15z"/>
<path d="M4159 1647 c-1 -12 -1 -26 0 -31 1 -4 -4 -15 -11 -24 -7 -9 -8 -13
-2 -9 14 8 13 -235 -1 -245 -6 -5 -6 -8 1 -8 7 0 11 -18 10 -50 -2 -27 1 -50
5 -50 4 0 11 -9 14 -21 5 -15 10 -18 18 -10 7 7 16 7 29 0 13 -7 18 -6 18 2 0
8 5 7 17 -2 14 -12 15 -12 9 -1 -7 11 -4 12 10 4 30 -16 55 9 57 56 1 22 5 38
10 35 4 -2 6 -10 5 -16 -1 -7 4 -23 11 -37 16 -27 41 -55 41 -44 0 3 8 0 17
-7 9 -8 14 -9 10 -3 -3 6 5 16 20 23 23 10 25 10 14 -2 -10 -13 -7 -14 26 -7
50 12 48 10 47 50 l-1 35 10 -37 c6 -21 14 -38 19 -38 5 0 7 -4 4 -9 -8 -12
27 -8 36 4 5 6 8 4 8 -5 0 -10 3 -11 8 -3 8 12 25 16 57 14 14 -1 16 -4 7 -9
-8 -6 -2 -9 17 -9 21 0 32 7 40 24 8 17 8 23 -2 23 -7 0 -8 3 -2 8 12 9 13
142 1 142 -5 0 -4 6 1 13 10 13 9 109 -1 126 -4 6 0 11 11 12 11 0 13 3 5 6
-6 2 -10 9 -6 14 3 5 0 9 -7 9 -7 0 -5 8 7 22 10 12 13 18 5 13 -11 -6 -13 -2
-9 18 3 15 1 24 -4 21 -4 -3 -10 1 -13 8 -3 7 -21 13 -40 14 -31 0 -34 -2 -31
-23 3 -13 0 -23 -7 -23 -8 0 -8 -3 -2 -8 6 -4 10 -20 10 -37 0 -16 -4 -33 -10
-37 -7 -5 -7 -8 0 -8 11 0 12 -71 1 -89 -4 -6 -2 -11 3 -11 16 0 14 -17 -2
-23 -11 -4 -14 19 -14 113 0 89 -3 122 -14 132 -18 17 -69 21 -70 5 -1 -7 -2
-56 -3 -109 -1 -53 -5 -100 -9 -104 -4 -4 -7 7 -7 24 0 17 -5 34 -10 37 -6 4
-8 11 -4 16 3 5 0 8 -8 7 -7 -2 -12 2 -11 8 1 6 -3 11 -10 12 -7 0 -26 3 -44
5 -40 7 -79 -21 -88 -63 -8 -37 15 -65 46 -55 18 6 20 5 10 -14 -7 -12 -16
-21 -22 -21 -5 0 -15 -11 -21 -25 -6 -14 -18 -25 -27 -25 -13 0 -13 2 -2 9 11
7 11 9 0 14 -12 4 -11 7 1 16 10 7 11 14 5 19 -13 8 -13 71 -1 91 6 10 5 12
-2 7 -11 -6 -16 5 -13 26 0 4 -6 5 -14 2 -8 -4 -15 -1 -15 5 0 6 -7 11 -15 11
-8 0 -15 5 -15 11 0 8 -4 8 -13 1 -9 -8 -13 -4 -13 19 -1 16 3 26 8 23 16 -10
-16 40 -32 51 -8 5 -25 11 -37 12 -17 1 -23 -4 -24 -20z m284 -202 c-3 -9 -8
-14 -10 -11 -3 3 -2 9 2 15 9 16 15 13 8 -4z m102 -36 c-6 -32 -12 -34 -12 -4
0 14 3 25 8 25 4 0 6 -10 4 -21z m110 -19 c-3 -5 -14 -10 -23 -10 -15 0 -15 2
-2 10 20 13 33 13 25 0z m-109 -60 c0 -22 -3 -40 -6 -40 -3 0 -7 18 -7 40 0
22 2 40 6 40 3 0 6 -18 7 -40z m114 30 c0 -5 -7 -10 -15 -10 -8 0 -15 5 -15
10 0 6 7 10 15 10 8 0 15 -4 15 -10z m-313 -35 c0 -8 -4 -12 -9 -9 -5 3 -6 10
-3 15 9 13 12 11 12 -6z m306 9 c-9 -4 -9 -13 -2 -31 5 -13 7 -29 4 -34 -3 -5
-2 -17 4 -27 7 -14 6 -18 -9 -19 -15 -1 -18 7 -18 58 0 48 3 59 17 58 9 0 11
-3 4 -5z m-207 -19 c-1 -8 -5 -17 -8 -21 -5 -4 -4 16 1 34 3 9 9 -1 7 -13z"/>
</g>
</svg>
