<?xml version="1.0" encoding="UTF-8" standalone="no"?>
<svg
   xmlns:dc="http://purl.org/dc/elements/1.1/"
   xmlns:cc="http://creativecommons.org/ns#"
   xmlns:rdf="http://www.w3.org/1999/02/22-rdf-syntax-ns#"
   xmlns:svg="http://www.w3.org/2000/svg"
   xmlns="http://www.w3.org/2000/svg"
   version="1.1"
   id="svg3297"
   height="300"
   width="480">
  <defs
     id="defs3299">
    <marker
       style="overflow:visible"
       id="Arrow1Lstart"
       refX="0"
       refY="0"
       orient="auto">
      <path
         transform="matrix(0.8,0,0,0.8,10,0)"
         style="fill-rule:evenodd;stroke:#000000;stroke-width:1pt"
         d="M 0,0 5,-5 -12.5,0 5,5 0,0 Z"
         id="path3769" />
    </marker>
    <filter
       height="1.0763528"
       y="-0.038176376"
       width="1.0350024"
       x="-0.017501144"
       id="filter4652"
       style="color-interpolation-filters:sRGB">
      <feGaussianBlur
         id="feGaussianBlur4654"
         stdDeviation="3.3121825" />
    </filter>
    <filter
       height="1.1145291"
       y="-0.057264566"
       width="1.0525033"
       x="-0.026251715"
       id="filter4426"
       style="color-interpolation-filters:sRGB">
      <feGaussianBlur
         id="feGaussianBlur4428"
         stdDeviation="4.9682737" />
    </filter>
    <filter
       height="1.1829944"
       y="-0.09149718"
       width="1.0650674"
       x="-0.03253369"
       id="filter4431"
       style="color-interpolation-filters:sRGB">
      <feGaussianBlur
         id="feGaussianBlur4433"
         stdDeviation="2.1295969" />
    </filter>
  </defs>
  <metadata
     id="metadata3302">
    <rdf:RDF>
      <cc:Work
         rdf:about="">
        <dc:format>image/svg+xml</dc:format>
        <dc:type
           rdf:resource="http://purl.org/dc/dcmitype/StillImage" />
        <dc:title></dc:title>
      </cc:Work>
    </rdf:RDF>
  </metadata>
  <g
     style="display:none"
     id="layer4">
    <rect
       y="-40.594059"
       x="-61.386139"
       height="405.94058"
       width="644.55444"
       id="rect4297"
       style="opacity:1;fill:#008080;fill-opacity:1;stroke:none;stroke-width:5;stroke-linecap:butt;stroke-linejoin:miter;stroke-miterlimit:4;stroke-dasharray:none;stroke-dashoffset:0;stroke-opacity:1" />
  </g>
  <g
     style="display:none"
     transform="translate(-254.72089,-224.68847)"
     id="layer1">
    <flowRoot
       transform="translate(148.71258,-89.698689)"
       xml:space="preserve"
       id="blur512"
       style="font-style:normal;font-weight:normal;font-size:40px;line-height:125%;font-family:Sans;letter-spacing:-0.18000001px;word-spacing:0px;fill:none;fill-opacity:1;stroke:#ffaa00;stroke-width:5;stroke-linecap:square;stroke-linejoin:round;stroke-miterlimit:4;stroke-dasharray:none;stroke-opacity:1;filter:url(#filter4652)"><flowRegion
         id="flowRegion4821"><rect
           id="rect4823"
           width="477.42856"
           height="345.57144"
           x="114.85715"
           y="309.79074"
           ry="0"
           style="letter-spacing:-0.18000001px;fill:none;stroke:#ffaa00;stroke-width:5;stroke-linecap:square;stroke-linejoin:round;stroke-miterlimit:4;stroke-dasharray:none;stroke-opacity:1" /></flowRegion><flowPara
         id="flowPara4825"
         style="font-style:normal;font-variant:normal;font-weight:normal;font-stretch:normal;font-size:288px;font-family:ChunkFive;-inkscape-font-specification:ChunkFive;letter-spacing:-5.36999989px;fill:none;stroke:#ffaa00;stroke-width:5;stroke-linecap:square;stroke-linejoin:round;stroke-miterlimit:4;stroke-dasharray:none;stroke-opacity:1"><flowSpan
           style="font-size:288px;letter-spacing:-2.94000006px;fill:none;stroke:#ffaa00;stroke-width:5;stroke-linecap:square;stroke-linejoin:round;stroke-miterlimit:4;stroke-dasharray:none;stroke-opacity:1"
           id="flowSpan4827"><flowSpan
             style="letter-spacing:-13px;fill:none;stroke:#ffaa00;stroke-width:5;stroke-linecap:square;stroke-linejoin:round;stroke-miterlimit:4;stroke-dasharray:none;stroke-opacity:1"
             id="flowSpan4829">5</flowSpan><flowSpan
             id="flowSpan4212"
             style="letter-spacing:0px">1</flowSpan></flowSpan><flowSpan
           id="flowSpan4214"
           style="letter-spacing:0px">2</flowSpan></flowPara></flowRoot>  </g>
  <g
     id="g4174"
     transform="translate(-254.72089,-224.68847)"
     style="display:inline">
    <g
       id="flowRoot4176"
       style="font-style:normal;font-weight:normal;font-size:40px;line-height:125%;font-family:Sans;letter-spacing:-0.18000001px;word-spacing:0px;fill:#0088ff;fill-opacity:1;stroke:none;stroke-width:5;stroke-linecap:square;stroke-linejoin:round;stroke-miterlimit:4;stroke-dasharray:none;stroke-opacity:1;filter:url(#filter4426)"
       transform="translate(148.71258,-89.698689)">
      <path
         id="path4224"
         style="letter-spacing:-13px;fill:#0088ff;fill-opacity:1;stroke:none;stroke-width:5;stroke-linecap:square;stroke-linejoin:round;stroke-miterlimit:4;stroke-dasharray:none;stroke-opacity:1"
         d="m 183.40142,376.39102 77.472,0 0,-42.912 -114.048,0 -17.568,99.072 36.864,16.416 c 6.048,-6.336 13.824,-13.248 27.072,-13.248 16.416,0 29.376,12.672 29.376,27.936 0,16.704 -12.384,28.8 -31.68,28.8 -16.704,0 -29.088,-9.792 -40.32,-21.312 l -31.392,32.544 c 11.808,17.856 42.336,34.848 71.424,34.848 41.76,0 86.112,-24.48 86.112,-72.864 0,-44.64 -33.408,-68.256 -67.104,-68.256 -14.112,0 -25.344,3.168 -31.104,6.912 l 4.896,-27.936 z" />
      <path
         id="path4226"
         style="letter-spacing:0px;fill:#0088ff;fill-opacity:1;stroke:none;stroke-opacity:1"
         d="m 288.24292,403.17502 28.8,-13.536 0,106.848 -28.8,0 0,38.304 115.2,0 0,-38.304 -26.784,0 0,-163.008 -51.264,0 c -21.024,25.056 -33.984,29.664 -50.4,37.728 l 13.248,31.968 z" />
      <path
         id="path4228"
         style="letter-spacing:0px;fill:#0088ff;fill-opacity:1;stroke:none;stroke-opacity:1"
         d="m 451.27792,398.85502 c 8.64,-9.216 19.872,-21.888 35.424,-21.888 13.248,0 24.192,4.32 24.192,19.008 0,17.856 -30.528,29.952 -50.976,48.096 -18.432,14.688 -26.208,23.04 -42.048,48.96 l 0,41.76 155.52,0 0,-61.344 -48.384,0 0,23.04 -50.688,0 c 6.624,-11.52 29.376,-29.664 43.2,-38.592 30.528,-19.872 46.08,-31.392 46.08,-64.512 0,-38.88 -30.24,-63.072 -68.544,-63.072 -28.8,0 -54.72,12.384 -74.88,35.712 l 31.104,32.832 z" />
    </g>
  </g>
  <g
     id="g3360"
     transform="translate(-254.72089,-224.68847)"
     style="display:inline">
    <g
       id="shadow512"
       style="font-style:normal;font-weight:normal;font-size:40px;line-height:125%;font-family:Sans;letter-spacing:-0.18000001px;word-spacing:0px;fill:#000000;fill-opacity:1;stroke:#000000;stroke-width:5;stroke-linecap:square;stroke-linejoin:round;stroke-miterlimit:4;stroke-dasharray:none;stroke-opacity:1"
       transform="translate(146.71258,-91.698689)">
      <path
         id="path4217"
         style="letter-spacing:-13px;stroke:#000000;stroke-width:5;stroke-linecap:square;stroke-linejoin:round;stroke-miterlimit:4;stroke-dasharray:none;stroke-opacity:1"
         d="m 183.40142,376.39102 77.472,0 0,-42.912 -114.048,0 -17.568,99.072 36.864,16.416 c 6.048,-6.336 13.824,-13.248 27.072,-13.248 16.416,0 29.376,12.672 29.376,27.936 0,16.704 -12.384,28.8 -31.68,28.8 -16.704,0 -29.088,-9.792 -40.32,-21.312 l -31.392,32.544 c 11.808,17.856 42.336,34.848 71.424,34.848 41.76,0 86.112,-24.48 86.112,-72.864 0,-44.64 -33.408,-68.256 -67.104,-68.256 -14.112,0 -25.344,3.168 -31.104,6.912 l 4.896,-27.936 z" />
      <path
         id="path4219"
         style="letter-spacing:0px"
         d="m 288.24292,403.17502 28.8,-13.536 0,106.848 -28.8,0 0,38.304 115.2,0 0,-38.304 -26.784,0 0,-163.008 -51.264,0 c -21.024,25.056 -33.984,29.664 -50.4,37.728 l 13.248,31.968 z" />
      <path
         id="path4221"
         style="letter-spacing:0px"
         d="m 451.27792,398.85502 c 8.64,-9.216 19.872,-21.888 35.424,-21.888 13.248,0 24.192,4.32 24.192,19.008 0,17.856 -30.528,29.952 -50.976,48.096 -18.432,14.688 -26.208,23.04 -42.048,48.96 l 0,41.76 155.52,0 0,-61.344 -48.384,0 0,23.04 -50.688,0 c 6.624,-11.52 29.376,-29.664 43.2,-38.592 30.528,-19.872 46.08,-31.392 46.08,-64.512 0,-38.88 -30.24,-63.072 -68.544,-63.072 -28.8,0 -54.72,12.384 -74.88,35.712 l 31.104,32.832 z" />
    </g>
  </g>
  <g
     id="g3346"
     transform="translate(-254.72089,-224.68847)"
     style="display:inline">
    <g
       id="main512"
       style="font-style:normal;font-weight:normal;font-size:40px;line-height:125%;font-family:Sans;letter-spacing:-0.18000001px;word-spacing:0px;fill:#000000;fill-opacity:1;stroke:#008080;stroke-width:5;stroke-linecap:square;stroke-linejoin:round;stroke-miterlimit:4;stroke-dasharray:none;stroke-opacity:1"
       transform="translate(142.71258,-95.698689)">
      <path
         id="path4210"
         style="letter-spacing:-13px;stroke:#008080;stroke-width:5;stroke-linecap:square;stroke-linejoin:round;stroke-miterlimit:4;stroke-dasharray:none;stroke-opacity:1"
         d="m 183.40142,376.39102 77.472,0 0,-42.912 -114.048,0 -17.568,99.072 36.864,16.416 c 6.048,-6.336 13.824,-13.248 27.072,-13.248 16.416,0 29.376,12.672 29.376,27.936 0,16.704 -12.384,28.8 -31.68,28.8 -16.704,0 -29.088,-9.792 -40.32,-21.312 l -31.392,32.544 c 11.808,17.856 42.336,34.848 71.424,34.848 41.76,0 86.112,-24.48 86.112,-72.864 0,-44.64 -33.408,-68.256 -67.104,-68.256 -14.112,0 -25.344,3.168 -31.104,6.912 l 4.896,-27.936 z" />
      <path
         id="path4212"
         style="letter-spacing:0px"
         d="m 288.24292,403.17502 28.8,-13.536 0,106.848 -28.8,0 0,38.304 115.2,0 0,-38.304 -26.784,0 0,-163.008 -51.264,0 c -21.024,25.056 -33.984,29.664 -50.4,37.728 l 13.248,31.968 z" />
      <path
         id="path4214"
         style="letter-spacing:0px"
         d="m 451.27792,398.85502 c 8.64,-9.216 19.872,-21.888 35.424,-21.888 13.248,0 24.192,4.32 24.192,19.008 0,17.856 -30.528,29.952 -50.976,48.096 -18.432,14.688 -26.208,23.04 -42.048,48.96 l 0,41.76 155.52,0 0,-61.344 -48.384,0 0,23.04 -50.688,0 c 6.624,-11.52 29.376,-29.664 43.2,-38.592 30.528,-19.872 46.08,-31.392 46.08,-64.512 0,-38.88 -30.24,-63.072 -68.544,-63.072 -28.8,0 -54.72,12.384 -74.88,35.712 l 31.104,32.832 z" />
    </g>
  </g>
  <g
     transform="translate(0,86.776001)"
     style="display:none"
     id="layer2">
    <flowRoot
       xml:space="preserve"
       id="beach"
       style="font-style:normal;font-weight:normal;font-size:40px;line-height:125%;font-family:Sans;letter-spacing:0px;word-spacing:0px;fill:#ffa200;fill-opacity:1;stroke:none"
       transform="translate(-132.21341,-389.39386)"><flowRegion
         id="flowRegion4833"><rect
           id="rect4835"
           width="226"
           height="143"
           x="448"
           y="463"
           style="fill:#ffa200;fill-opacity:1" /></flowRegion><flowPara
         id="flowPara4837"
         style="font-style:normal;font-variant:normal;font-weight:normal;font-stretch:normal;font-size:48px;font-family:'Kaushan Script';-inkscape-font-specification:'Kaushan Script';fill:#ffa200;fill-opacity:1">Beach </flowPara></flowRoot>  </g>
  <g
     id="g4329"
     style="display:none">
    <flowRoot
       transform="translate(284,-20)"
       style="font-style:normal;font-weight:normal;font-size:60px;line-height:125%;font-family:Sans;letter-spacing:0px;word-spacing:0px;fill:#0088ff;fill-opacity:1;stroke:none;stroke-width:1px;stroke-linecap:butt;stroke-linejoin:miter;stroke-opacity:1;filter:url(#filter4431)"
       id="flowRoot4331"
       xml:space="preserve"><flowRegion
         id="flowRegion4333"><rect
           style="font-size:60px;fill:#0088ff;fill-opacity:1"
           y="241.66667"
           x="22.222221"
           height="80.308014"
           width="203.44702"
           id="rect4335" /></flowRegion><flowPara
         style="font-style:normal;font-variant:normal;font-weight:normal;font-stretch:normal;font-size:60px;font-family:'League Gothic';-inkscape-font-specification:'League Gothic';fill:#0088ff;fill-opacity:1"
         id="flowPara4337">Volleyball</flowPara></flowRoot>  </g>
  <g
     style="display:inline"
     id="g4347">
    <g
       id="flowRoot4349"
       style="font-style:normal;font-weight:normal;font-size:60px;line-height:125%;font-family:Sans;letter-spacing:0px;word-spacing:0px;fill:#ffaa00;fill-opacity:1;stroke:none;stroke-width:1px;stroke-linecap:butt;stroke-linejoin:miter;stroke-opacity:1;filter:url(#filter4431)"
       transform="translate(284,-20)">
      <path
         id="path4279"
         style="font-style:normal;font-variant:normal;font-weight:normal;font-stretch:normal;font-size:60px;font-family:'League Gothic';-inkscape-font-specification:'League Gothic';fill:#ffaa00;fill-opacity:1"
         d="m 36.382656,256.00352 6.3,0 -6.72,44.1 -6.48,0 -6.72,-44.1 6.3,0 3.24,24.24 0.24,1.86 0.36,0 0.24,-1.86 3.24,-24.24 z" />
      <path
         id="path4281"
         style="font-style:normal;font-variant:normal;font-weight:normal;font-stretch:normal;font-size:60px;font-family:'League Gothic';-inkscape-font-specification:'League Gothic';fill:#ffaa00;fill-opacity:1"
         d="m 60.599219,292.12352 c -0.18,3.18 -1.14,5.4 -3.24,7.14 -1.08,0.9 -2.58,1.32 -4.56,1.32 -3.9,0 -5.82,-2.16 -6.78,-4.32 -0.54,-1.26 -0.9,-2.7 -0.96,-4.32 l 0,-16.5 c 0.18,-3.18 1.14,-5.52 3.24,-7.32 1.02,-0.9 2.52,-1.32 4.5,-1.32 3.9,0 5.88,2.16 6.84,4.26 0.54,1.26 0.9,2.64 0.96,4.2 l 0,16.86 z m -5.7,-16.68 c 0.06,-1.26 -0.18,-2.16 -0.78,-2.88 -0.3,-0.3 -0.78,-0.48 -1.32,-0.48 -1.14,0 -1.62,0.78 -1.86,1.68 -0.18,0.48 -0.24,1.02 -0.18,1.68 l 0,16.5 c -0.06,1.26 0.24,2.16 0.78,2.82 0.3,0.3 0.72,0.48 1.26,0.48 1.14,0 1.68,-0.72 1.92,-1.62 0.18,-0.48 0.24,-1.02 0.18,-1.68 l 0,-16.5 z" />
      <path
         id="path4283"
         style="font-style:normal;font-variant:normal;font-weight:normal;font-stretch:normal;font-size:60px;font-family:'League Gothic';-inkscape-font-specification:'League Gothic';fill:#ffaa00;fill-opacity:1"
         d="m 64.700781,300.10352 0,-44.1 6.06,0 0,44.1 -6.06,0 z" />
      <path
         id="path4285"
         style="font-style:normal;font-variant:normal;font-weight:normal;font-stretch:normal;font-size:60px;font-family:'League Gothic';-inkscape-font-specification:'League Gothic';fill:#ffaa00;fill-opacity:1"
         d="m 75.599219,300.10352 0,-44.1 6.06,0 0,44.1 -6.06,0 z" />
      <path
         id="path4287"
         style="font-style:normal;font-variant:normal;font-weight:normal;font-stretch:normal;font-size:60px;font-family:'League Gothic';-inkscape-font-specification:'League Gothic';fill:#ffaa00;fill-opacity:1"
         d="m 101.56047,288.34352 0,3.78 c -0.18,3.18 -1.14,5.4 -3.300001,7.14 -1.08,0.9 -2.58,1.32 -4.56,1.32 -3.9,0 -5.88,-2.16 -6.84,-4.32 -0.54,-1.26 -0.9,-2.7 -0.96,-4.32 l 0,-16.5 c 0.18,-3.18 1.2,-5.52 3.36,-7.32 1.02,-0.9 2.52,-1.32 4.5,-1.32 3.9,0 5.88,2.16 6.840001,4.26 0.54,1.26 0.9,2.64 0.96,4.2 l 0,9.54 -10.020001,0 0,7.14 c 0.06,1.26 0.42,2.16 0.96,2.82 0.3,0.3 0.72,0.48 1.26,0.48 1.14,0 1.68,-0.72 1.92,-1.62 0.18,-0.48 0.24,-1.02 0.24,-1.68 l 0,-3.6 5.640001,0 z m -10.020001,-8.28 4.38,0 0,-4.62 c 0,-1.26 -0.24,-2.16 -0.84,-2.88 -0.3,-0.3 -0.78,-0.48 -1.32,-0.48 -1.14,0 -1.62,0.78 -1.92,1.68 -0.18,0.48 -0.24,1.02 -0.3,1.68 l 0,4.62 z" />
      <path
         id="path4289"
         style="font-style:normal;font-variant:normal;font-weight:normal;font-stretch:normal;font-size:60px;font-family:'League Gothic';-inkscape-font-specification:'League Gothic';fill:#ffaa00;fill-opacity:1"
         d="m 103.92484,306.34352 c 0.06,0.06 0.18,0.06 0.36,0.06 0.3,0.06 1.8,0.18 2.76,-0.54 0.96,-0.72 1.62,-1.74 1.98,-3 0.18,-0.6 0.24,-1.2 0.24,-1.8 l -5.58,-33.78 5.94,0 2.4,20.16 0.12,1.68 0.24,0 0.12,-1.68 2.4,-20.16 5.94,0 -5.82,35.28 c -0.3,2.34 -1.2,4.62 -2.64,6.36 -1.44,1.74 -3.36,2.94 -5.76,2.94 -0.18,0 -0.42,0 -0.72,0 -0.54,0 -1.26,-0.06 -1.98,-0.12 l 0,-5.4 z" />
      <path
         id="path4291"
         style="font-style:normal;font-variant:normal;font-weight:normal;font-stretch:normal;font-size:60px;font-family:'League Gothic';-inkscape-font-specification:'League Gothic';fill:#ffaa00;fill-opacity:1"
         d="m 123.99766,256.00352 6.06,0 0,13.44 c 1.02,-0.96 1.92,-1.68 3.12,-2.22 0.54,-0.3 1.14,-0.42 1.68,-0.42 1.68,0 2.82,0.96 3.6,2.16 0.72,1.26 1.08,2.88 1.08,4.26 l 0,20.94 c 0,1.38 -0.36,3 -1.08,4.2 -0.78,1.26 -1.92,2.22 -3.6,2.22 -1.14,0 -2.34,-0.66 -3.24,-1.32 -0.54,-0.42 -1.02,-0.84 -1.56,-1.32 l 0,2.16 -6.06,0 0,-44.1 z m 6.06,36.9 c 0,1.14 0.9,1.98 1.8,1.98 0.9,0 1.62,-0.84 1.62,-1.98 l 0,-18.42 c 0,-1.14 -0.72,-1.98 -1.62,-1.98 -0.9,0 -1.8,1.02 -1.8,1.98 l 0,18.42 z" />
      <path
         id="path4293"
         style="font-style:normal;font-variant:normal;font-weight:normal;font-stretch:normal;font-size:60px;font-family:'League Gothic';-inkscape-font-specification:'League Gothic';fill:#ffaa00;fill-opacity:1"
         d="m 152.98234,275.08352 c 0,-0.54 0,-1.38 -0.18,-1.98 -0.24,-0.6 -0.72,-1.02 -1.5,-1.02 -1.02,0 -1.44,0.78 -1.62,1.74 -0.06,0.48 -0.12,1.02 -0.12,1.56 0,0.54 0,1.08 0,1.56 l -6.06,0 0,-1.38 c 0,-2.4 0.9,-4.56 2.34,-6.18 1.44,-1.62 3.48,-2.58 5.82,-2.58 1.98,0 3.78,0.78 5.16,2.1 1.38,1.32 2.22,3.18 2.22,5.34 l 0,20.16 c 0,2.94 0.18,4.26 0.42,5.7 l -5.94,0 c -0.54,-0.66 -0.54,-2.22 -0.54,-2.64 l -0.42,0 c -0.3,0.54 -0.84,1.32 -1.68,1.98 -0.84,0.66 -1.98,1.14 -3.18,1.14 -0.78,0 -2.04,-0.3 -3,-1.5 -1.02,-1.14 -1.86,-3.18 -1.86,-6.6 0,-3.66 1.08,-6.3 2.52,-8.1 1.44,-1.8 3.24,-2.94 4.74,-3.72 1.5,-0.78 2.64,-1.32 2.88,-1.98 l 0,-3.6 z m 0,9.18 c -2.94,1.26 -4.2,4.2 -4.2,7.32 0,0.42 0.06,1.14 0.3,1.8 0.24,0.72 0.66,1.26 1.38,1.26 1.38,0 2.52,-0.84 2.52,-1.98 l 0,-8.4 z" />
      <path
         id="path4295"
         style="font-style:normal;font-variant:normal;font-weight:normal;font-stretch:normal;font-size:60px;font-family:'League Gothic';-inkscape-font-specification:'League Gothic';fill:#ffaa00;fill-opacity:1"
         d="m 162.90391,300.10352 0,-44.1 6.06,0 0,44.1 -6.06,0 z" />
      <path
         id="path4297"
         style="font-style:normal;font-variant:normal;font-weight:normal;font-stretch:normal;font-size:60px;font-family:'League Gothic';-inkscape-font-specification:'League Gothic';fill:#ffaa00;fill-opacity:1"
         d="m 173.80234,300.10352 0,-44.1 6.06,0 0,44.1 -6.06,0 z" />
    </g>
  </g>
  <g
     style="display:inline"
     id="g4319">
    <g
       id="flowRoot4321"
       style="font-style:normal;font-weight:normal;font-size:60px;line-height:125%;font-family:Sans;letter-spacing:0px;word-spacing:0px;fill:#000000;fill-opacity:1;stroke:none;stroke-width:1px;stroke-linecap:butt;stroke-linejoin:miter;stroke-opacity:1"
       transform="translate(284,-20)">
      <path
         id="path4258"
         style="font-style:normal;font-variant:normal;font-weight:normal;font-stretch:normal;font-size:60px;font-family:'League Gothic';-inkscape-font-specification:'League Gothic';fill:#000000;fill-opacity:1"
         d="m 36.382656,256.00352 6.3,0 -6.72,44.1 -6.48,0 -6.72,-44.1 6.3,0 3.24,24.24 0.24,1.86 0.36,0 0.24,-1.86 3.24,-24.24 z" />
      <path
         id="path4260"
         style="font-style:normal;font-variant:normal;font-weight:normal;font-stretch:normal;font-size:60px;font-family:'League Gothic';-inkscape-font-specification:'League Gothic';fill:#000000;fill-opacity:1"
         d="m 60.599219,292.12352 c -0.18,3.18 -1.14,5.4 -3.24,7.14 -1.08,0.9 -2.58,1.32 -4.56,1.32 -3.9,0 -5.82,-2.16 -6.78,-4.32 -0.54,-1.26 -0.9,-2.7 -0.96,-4.32 l 0,-16.5 c 0.18,-3.18 1.14,-5.52 3.24,-7.32 1.02,-0.9 2.52,-1.32 4.5,-1.32 3.9,0 5.88,2.16 6.84,4.26 0.54,1.26 0.9,2.64 0.96,4.2 l 0,16.86 z m -5.7,-16.68 c 0.06,-1.26 -0.18,-2.16 -0.78,-2.88 -0.3,-0.3 -0.78,-0.48 -1.32,-0.48 -1.14,0 -1.62,0.78 -1.86,1.68 -0.18,0.48 -0.24,1.02 -0.18,1.68 l 0,16.5 c -0.06,1.26 0.24,2.16 0.78,2.82 0.3,0.3 0.72,0.48 1.26,0.48 1.14,0 1.68,-0.72 1.92,-1.62 0.18,-0.48 0.24,-1.02 0.18,-1.68 l 0,-16.5 z" />
      <path
         id="path4262"
         style="font-style:normal;font-variant:normal;font-weight:normal;font-stretch:normal;font-size:60px;font-family:'League Gothic';-inkscape-font-specification:'League Gothic';fill:#000000;fill-opacity:1"
         d="m 64.700781,300.10352 0,-44.1 6.06,0 0,44.1 -6.06,0 z" />
      <path
         id="path4264"
         style="font-style:normal;font-variant:normal;font-weight:normal;font-stretch:normal;font-size:60px;font-family:'League Gothic';-inkscape-font-specification:'League Gothic';fill:#000000;fill-opacity:1"
         d="m 75.599219,300.10352 0,-44.1 6.06,0 0,44.1 -6.06,0 z" />
      <path
         id="path4266"
         style="font-style:normal;font-variant:normal;font-weight:normal;font-stretch:normal;font-size:60px;font-family:'League Gothic';-inkscape-font-specification:'League Gothic';fill:#000000;fill-opacity:1"
         d="m 101.56047,288.34352 0,3.78 c -0.18,3.18 -1.14,5.4 -3.300001,7.14 -1.08,0.9 -2.58,1.32 -4.56,1.32 -3.9,0 -5.88,-2.16 -6.84,-4.32 -0.54,-1.26 -0.9,-2.7 -0.96,-4.32 l 0,-16.5 c 0.18,-3.18 1.2,-5.52 3.36,-7.32 1.02,-0.9 2.52,-1.32 4.5,-1.32 3.9,0 5.88,2.16 6.840001,4.26 0.54,1.26 0.9,2.64 0.96,4.2 l 0,9.54 -10.020001,0 0,7.14 c 0.06,1.26 0.42,2.16 0.96,2.82 0.3,0.3 0.72,0.48 1.26,0.48 1.14,0 1.68,-0.72 1.92,-1.62 0.18,-0.48 0.24,-1.02 0.24,-1.68 l 0,-3.6 5.640001,0 z m -10.020001,-8.28 4.38,0 0,-4.62 c 0,-1.26 -0.24,-2.16 -0.84,-2.88 -0.3,-0.3 -0.78,-0.48 -1.32,-0.48 -1.14,0 -1.62,0.78 -1.92,1.68 -0.18,0.48 -0.24,1.02 -0.3,1.68 l 0,4.62 z" />
      <path
         id="path4268"
         style="font-style:normal;font-variant:normal;font-weight:normal;font-stretch:normal;font-size:60px;font-family:'League Gothic';-inkscape-font-specification:'League Gothic';fill:#000000;fill-opacity:1"
         d="m 103.92484,306.34352 c 0.06,0.06 0.18,0.06 0.36,0.06 0.3,0.06 1.8,0.18 2.76,-0.54 0.96,-0.72 1.62,-1.74 1.98,-3 0.18,-0.6 0.24,-1.2 0.24,-1.8 l -5.58,-33.78 5.94,0 2.4,20.16 0.12,1.68 0.24,0 0.12,-1.68 2.4,-20.16 5.94,0 -5.82,35.28 c -0.3,2.34 -1.2,4.62 -2.64,6.36 -1.44,1.74 -3.36,2.94 -5.76,2.94 -0.18,0 -0.42,0 -0.72,0 -0.54,0 -1.26,-0.06 -1.98,-0.12 l 0,-5.4 z" />
      <path
         id="path4270"
         style="font-style:normal;font-variant:normal;font-weight:normal;font-stretch:normal;font-size:60px;font-family:'League Gothic';-inkscape-font-specification:'League Gothic';fill:#000000;fill-opacity:1"
         d="m 123.99766,256.00352 6.06,0 0,13.44 c 1.02,-0.96 1.92,-1.68 3.12,-2.22 0.54,-0.3 1.14,-0.42 1.68,-0.42 1.68,0 2.82,0.96 3.6,2.16 0.72,1.26 1.08,2.88 1.08,4.26 l 0,20.94 c 0,1.38 -0.36,3 -1.08,4.2 -0.78,1.26 -1.92,2.22 -3.6,2.22 -1.14,0 -2.34,-0.66 -3.24,-1.32 -0.54,-0.42 -1.02,-0.84 -1.56,-1.32 l 0,2.16 -6.06,0 0,-44.1 z m 6.06,36.9 c 0,1.14 0.9,1.98 1.8,1.98 0.9,0 1.62,-0.84 1.62,-1.98 l 0,-18.42 c 0,-1.14 -0.72,-1.98 -1.62,-1.98 -0.9,0 -1.8,1.02 -1.8,1.98 l 0,18.42 z" />
      <path
         id="path4272"
         style="font-style:normal;font-variant:normal;font-weight:normal;font-stretch:normal;font-size:60px;font-family:'League Gothic';-inkscape-font-specification:'League Gothic';fill:#000000;fill-opacity:1"
         d="m 152.98234,275.08352 c 0,-0.54 0,-1.38 -0.18,-1.98 -0.24,-0.6 -0.72,-1.02 -1.5,-1.02 -1.02,0 -1.44,0.78 -1.62,1.74 -0.06,0.48 -0.12,1.02 -0.12,1.56 0,0.54 0,1.08 0,1.56 l -6.06,0 0,-1.38 c 0,-2.4 0.9,-4.56 2.34,-6.18 1.44,-1.62 3.48,-2.58 5.82,-2.58 1.98,0 3.78,0.78 5.16,2.1 1.38,1.32 2.22,3.18 2.22,5.34 l 0,20.16 c 0,2.94 0.18,4.26 0.42,5.7 l -5.94,0 c -0.54,-0.66 -0.54,-2.22 -0.54,-2.64 l -0.42,0 c -0.3,0.54 -0.84,1.32 -1.68,1.98 -0.84,0.66 -1.98,1.14 -3.18,1.14 -0.78,0 -2.04,-0.3 -3,-1.5 -1.02,-1.14 -1.86,-3.18 -1.86,-6.6 0,-3.66 1.08,-6.3 2.52,-8.1 1.44,-1.8 3.24,-2.94 4.74,-3.72 1.5,-0.78 2.64,-1.32 2.88,-1.98 l 0,-3.6 z m 0,9.18 c -2.94,1.26 -4.2,4.2 -4.2,7.32 0,0.42 0.06,1.14 0.3,1.8 0.24,0.72 0.66,1.26 1.38,1.26 1.38,0 2.52,-0.84 2.52,-1.98 l 0,-8.4 z" />
      <path
         id="path4274"
         style="font-style:normal;font-variant:normal;font-weight:normal;font-stretch:normal;font-size:60px;font-family:'League Gothic';-inkscape-font-specification:'League Gothic';fill:#000000;fill-opacity:1"
         d="m 162.90391,300.10352 0,-44.1 6.06,0 0,44.1 -6.06,0 z" />
      <path
         id="path4276"
         style="font-style:normal;font-variant:normal;font-weight:normal;font-stretch:normal;font-size:60px;font-family:'League Gothic';-inkscape-font-specification:'League Gothic';fill:#000000;fill-opacity:1"
         d="m 173.80234,300.10352 0,-44.1 6.06,0 0,44.1 -6.06,0 z" />
    </g>
  </g>
  <g
     id="g4259"
     style="display:inline">
    <g
       id="flowRoot4261"
       style="font-style:normal;font-weight:normal;font-size:60px;line-height:125%;font-family:Sans;letter-spacing:0px;word-spacing:0px;fill:#000000;fill-opacity:1;stroke:none;stroke-width:1px;stroke-linecap:butt;stroke-linejoin:miter;stroke-opacity:1"
       transform="translate(282,-22)">
      <path
         id="path4237"
         style="font-style:normal;font-variant:normal;font-weight:normal;font-stretch:normal;font-size:60px;font-family:'League Gothic';-inkscape-font-specification:'League Gothic';fill:#0088ff;fill-opacity:1"
         d="m 36.382656,256.00352 6.3,0 -6.72,44.1 -6.48,0 -6.72,-44.1 6.3,0 3.24,24.24 0.24,1.86 0.36,0 0.24,-1.86 3.24,-24.24 z" />
      <path
         id="path4239"
         style="font-style:normal;font-variant:normal;font-weight:normal;font-stretch:normal;font-size:60px;font-family:'League Gothic';-inkscape-font-specification:'League Gothic';fill:#0088ff;fill-opacity:1"
         d="m 60.599219,292.12352 c -0.18,3.18 -1.14,5.4 -3.24,7.14 -1.08,0.9 -2.58,1.32 -4.56,1.32 -3.9,0 -5.82,-2.16 -6.78,-4.32 -0.54,-1.26 -0.9,-2.7 -0.96,-4.32 l 0,-16.5 c 0.18,-3.18 1.14,-5.52 3.24,-7.32 1.02,-0.9 2.52,-1.32 4.5,-1.32 3.9,0 5.88,2.16 6.84,4.26 0.54,1.26 0.9,2.64 0.96,4.2 l 0,16.86 z m -5.7,-16.68 c 0.06,-1.26 -0.18,-2.16 -0.78,-2.88 -0.3,-0.3 -0.78,-0.48 -1.32,-0.48 -1.14,0 -1.62,0.78 -1.86,1.68 -0.18,0.48 -0.24,1.02 -0.18,1.68 l 0,16.5 c -0.06,1.26 0.24,2.16 0.78,2.82 0.3,0.3 0.72,0.48 1.26,0.48 1.14,0 1.68,-0.72 1.92,-1.62 0.18,-0.48 0.24,-1.02 0.18,-1.68 l 0,-16.5 z" />
      <path
         id="path4241"
         style="font-style:normal;font-variant:normal;font-weight:normal;font-stretch:normal;font-size:60px;font-family:'League Gothic';-inkscape-font-specification:'League Gothic';fill:#0088ff;fill-opacity:1"
         d="m 64.700781,300.10352 0,-44.1 6.06,0 0,44.1 -6.06,0 z" />
      <path
         id="path4243"
         style="font-style:normal;font-variant:normal;font-weight:normal;font-stretch:normal;font-size:60px;font-family:'League Gothic';-inkscape-font-specification:'League Gothic';fill:#0088ff;fill-opacity:1"
         d="m 75.599219,300.10352 0,-44.1 6.06,0 0,44.1 -6.06,0 z" />
      <path
         id="path4245"
         style="font-style:normal;font-variant:normal;font-weight:normal;font-stretch:normal;font-size:60px;font-family:'League Gothic';-inkscape-font-specification:'League Gothic';fill:#0088ff;fill-opacity:1"
         d="m 101.56047,288.34352 0,3.78 c -0.18,3.18 -1.14,5.4 -3.300001,7.14 -1.08,0.9 -2.58,1.32 -4.56,1.32 -3.9,0 -5.88,-2.16 -6.84,-4.32 -0.54,-1.26 -0.9,-2.7 -0.96,-4.32 l 0,-16.5 c 0.18,-3.18 1.2,-5.52 3.36,-7.32 1.02,-0.9 2.52,-1.32 4.5,-1.32 3.9,0 5.88,2.16 6.840001,4.26 0.54,1.26 0.9,2.64 0.96,4.2 l 0,9.54 -10.020001,0 0,7.14 c 0.06,1.26 0.42,2.16 0.96,2.82 0.3,0.3 0.72,0.48 1.26,0.48 1.14,0 1.68,-0.72 1.92,-1.62 0.18,-0.48 0.24,-1.02 0.24,-1.68 l 0,-3.6 5.640001,0 z m -10.020001,-8.28 4.38,0 0,-4.62 c 0,-1.26 -0.24,-2.16 -0.84,-2.88 -0.3,-0.3 -0.78,-0.48 -1.32,-0.48 -1.14,0 -1.62,0.78 -1.92,1.68 -0.18,0.48 -0.24,1.02 -0.3,1.68 l 0,4.62 z" />
      <path
         id="path4247"
         style="font-style:normal;font-variant:normal;font-weight:normal;font-stretch:normal;font-size:60px;font-family:'League Gothic';-inkscape-font-specification:'League Gothic';fill:#0088ff;fill-opacity:1"
         d="m 103.92484,306.34352 c 0.06,0.06 0.18,0.06 0.36,0.06 0.3,0.06 1.8,0.18 2.76,-0.54 0.96,-0.72 1.62,-1.74 1.98,-3 0.18,-0.6 0.24,-1.2 0.24,-1.8 l -5.58,-33.78 5.94,0 2.4,20.16 0.12,1.68 0.24,0 0.12,-1.68 2.4,-20.16 5.94,0 -5.82,35.28 c -0.3,2.34 -1.2,4.62 -2.64,6.36 -1.44,1.74 -3.36,2.94 -5.76,2.94 -0.18,0 -0.42,0 -0.72,0 -0.54,0 -1.26,-0.06 -1.98,-0.12 l 0,-5.4 z" />
      <path
         id="path4249"
         style="font-style:normal;font-variant:normal;font-weight:normal;font-stretch:normal;font-size:60px;font-family:'League Gothic';-inkscape-font-specification:'League Gothic';fill:#0088ff;fill-opacity:1"
         d="m 123.99766,256.00352 6.06,0 0,13.44 c 1.02,-0.96 1.92,-1.68 3.12,-2.22 0.54,-0.3 1.14,-0.42 1.68,-0.42 1.68,0 2.82,0.96 3.6,2.16 0.72,1.26 1.08,2.88 1.08,4.26 l 0,20.94 c 0,1.38 -0.36,3 -1.08,4.2 -0.78,1.26 -1.92,2.22 -3.6,2.22 -1.14,0 -2.34,-0.66 -3.24,-1.32 -0.54,-0.42 -1.02,-0.84 -1.56,-1.32 l 0,2.16 -6.06,0 0,-44.1 z m 6.06,36.9 c 0,1.14 0.9,1.98 1.8,1.98 0.9,0 1.62,-0.84 1.62,-1.98 l 0,-18.42 c 0,-1.14 -0.72,-1.98 -1.62,-1.98 -0.9,0 -1.8,1.02 -1.8,1.98 l 0,18.42 z" />
      <path
         id="path4251"
         style="font-style:normal;font-variant:normal;font-weight:normal;font-stretch:normal;font-size:60px;font-family:'League Gothic';-inkscape-font-specification:'League Gothic';fill:#0088ff;fill-opacity:1"
         d="m 152.98234,275.08352 c 0,-0.54 0,-1.38 -0.18,-1.98 -0.24,-0.6 -0.72,-1.02 -1.5,-1.02 -1.02,0 -1.44,0.78 -1.62,1.74 -0.06,0.48 -0.12,1.02 -0.12,1.56 0,0.54 0,1.08 0,1.56 l -6.06,0 0,-1.38 c 0,-2.4 0.9,-4.56 2.34,-6.18 1.44,-1.62 3.48,-2.58 5.82,-2.58 1.98,0 3.78,0.78 5.16,2.1 1.38,1.32 2.22,3.18 2.22,5.34 l 0,20.16 c 0,2.94 0.18,4.26 0.42,5.7 l -5.94,0 c -0.54,-0.66 -0.54,-2.22 -0.54,-2.64 l -0.42,0 c -0.3,0.54 -0.84,1.32 -1.68,1.98 -0.84,0.66 -1.98,1.14 -3.18,1.14 -0.78,0 -2.04,-0.3 -3,-1.5 -1.02,-1.14 -1.86,-3.18 -1.86,-6.6 0,-3.66 1.08,-6.3 2.52,-8.1 1.44,-1.8 3.24,-2.94 4.74,-3.72 1.5,-0.78 2.64,-1.32 2.88,-1.98 l 0,-3.6 z m 0,9.18 c -2.94,1.26 -4.2,4.2 -4.2,7.32 0,0.42 0.06,1.14 0.3,1.8 0.24,0.72 0.66,1.26 1.38,1.26 1.38,0 2.52,-0.84 2.52,-1.98 l 0,-8.4 z" />
      <path
         id="path4253"
         style="font-style:normal;font-variant:normal;font-weight:normal;font-stretch:normal;font-size:60px;font-family:'League Gothic';-inkscape-font-specification:'League Gothic';fill:#0088ff;fill-opacity:1"
         d="m 162.90391,300.10352 0,-44.1 6.06,0 0,44.1 -6.06,0 z" />
      <path
         id="path4255"
         style="font-style:normal;font-variant:normal;font-weight:normal;font-stretch:normal;font-size:60px;font-family:'League Gothic';-inkscape-font-specification:'League Gothic';fill:#0088ff;fill-opacity:1"
         d="m 173.80234,300.10352 0,-44.1 6.06,0 0,44.1 -6.06,0 z" />
    </g>
  </g>
</svg>
